<svg width="195" height="316" viewBox="0 0 195 316" fill="none" xmlns="http://www.w3.org/2000/svg">
<path d="M0 1.44383V314.556C0 315.35 0.660893 316 1.46865 316H193.531C194.339 316 195 315.35 195 314.556V197.913C195 197.426 194.761 196.974 194.339 196.704L139.118 160.5C138.879 160.337 138.585 160.265 138.31 160.265H97.757C96.9493 160.265 96.2884 160.915 96.2884 161.709V188.095C96.2884 188.889 96.9493 189.539 97.757 189.539H103.356C104.164 189.539 104.825 190.188 104.825 190.982V226.068C104.825 226.862 104.164 227.511 103.356 227.511H89.8263C89.0185 227.511 88.3577 226.862 88.3577 226.068V87.6043C88.3577 86.8102 89.0185 86.1605 89.8263 86.1605H134.583C135.391 86.1605 136.052 85.5108 136.052 84.7167V56.9049C136.052 56.1108 135.391 55.4611 134.583 55.4611H58.5991C57.7914 55.4611 57.1305 56.1108 57.1305 56.9049V256.767C57.1305 257.561 57.7914 258.211 58.5991 258.211H134.583C135.391 258.211 136.052 257.561 136.052 256.767V196.379C136.052 195.224 137.355 194.538 138.328 195.17L164.562 212.369C164.966 212.64 165.223 213.091 165.223 213.578V283.857C165.223 284.651 164.562 285.301 163.754 285.301H31.2455C30.4378 285.301 29.7769 284.651 29.7769 283.857V32.1432C29.7769 31.3491 30.4378 30.6994 31.2455 30.6994H163.754C164.562 30.6994 165.223 31.3491 165.223 32.1432V143.354C165.223 143.841 165.462 144.293 165.884 144.563L192.724 162.16C193.697 162.792 195 162.106 195 160.951V1.44383C195 0.649723 194.339 0 193.531 0H1.46865C0.660893 0 0 0.649723 0 1.44383Z" fill="#C69E3F"/>
</svg>
