<svg width="17" height="16" viewBox="0 0 17 16" fill="none" xmlns="http://www.w3.org/2000/svg">
<path d="M3.71778 6.92444C4.99778 9.44 7.06 11.5022 9.57556 12.7822L11.5311 10.8267C11.78 10.5778 12.1267 10.5067 12.4378 10.6044C13.4333 10.9333 14.5 11.1111 15.6111 11.1111C15.8469 11.1111 16.073 11.2048 16.2397 11.3715C16.4064 11.5382 16.5 11.7643 16.5 12V15.1111C16.5 15.3469 16.4064 15.573 16.2397 15.7397C16.073 15.9064 15.8469 16 15.6111 16C11.6034 16 7.75983 14.4079 4.92594 11.5741C2.09206 8.74017 0.5 4.89661 0.5 0.888889C0.5 0.653141 0.59365 0.427048 0.760349 0.260349C0.927048 0.0936505 1.15314 0 1.38889 0H4.5C4.73575 0 4.96184 0.0936505 5.12854 0.260349C5.29524 0.427048 5.38889 0.653141 5.38889 0.888889C5.38889 2 5.56667 3.06667 5.89556 4.06222C5.99333 4.37333 5.92222 4.72 5.67333 4.96889L3.71778 6.92444Z" fill="white"/>
</svg>
