<svg width="49" height="37" viewBox="0 0 49 37" fill="none" xmlns="http://www.w3.org/2000/svg">
<path d="M48.1605 1.15593C48.1589 1.12121 48.1555 1.0866 48.1502 1.05225C48.1447 1.02177 48.136 0.99297 48.1279 0.96345C48.1201 0.932829 48.1107 0.90263 48.0998 0.87297C48.0875 0.84308 48.0738 0.813841 48.0585 0.78537C48.0448 0.75897 48.0321 0.73233 48.0158 0.70689C47.9962 0.677431 47.9751 0.649069 47.9524 0.62193C47.9392 0.60537 47.9291 0.58713 47.9145 0.57129C47.9097 0.56625 47.9042 0.56289 47.8996 0.55785C47.8742 0.532494 47.8474 0.508615 47.8192 0.48633C47.7981 0.46857 47.778 0.449609 47.7559 0.434009C47.7283 0.415973 47.6998 0.399391 47.6704 0.38433C47.6448 0.36993 47.62 0.35409 47.5936 0.34257C47.5648 0.32985 47.5344 0.32169 47.5044 0.31185C47.4751 0.30225 47.4465 0.29121 47.4165 0.28449C47.3884 0.27825 47.3589 0.276089 47.3301 0.272489C47.2962 0.267176 47.262 0.263731 47.2276 0.262169C47.2207 0.262169 47.2142 0.26001 47.207 0.26001H1.12699C1.11979 0.26001 1.11355 0.261929 1.10659 0.262169C1.07091 0.263732 1.03533 0.267258 1.00003 0.27273C0.972672 0.27657 0.944832 0.27825 0.918432 0.28425C0.88643 0.292379 0.854868 0.302152 0.823872 0.31353C0.796272 0.32289 0.767712 0.33033 0.741312 0.34209C0.712512 0.35457 0.686112 0.37137 0.658512 0.38697C0.631632 0.40209 0.604032 0.41577 0.578832 0.43353C0.555792 0.44961 0.534672 0.46953 0.512832 0.48777C0.485442 0.509715 0.459245 0.533108 0.434352 0.55785C0.429552 0.56265 0.424032 0.56625 0.419472 0.57129C0.405072 0.58713 0.394752 0.60537 0.381552 0.62193C0.358891 0.649067 0.337739 0.67743 0.318192 0.70689C0.301872 0.73233 0.288912 0.758969 0.275472 0.785609C0.260832 0.814409 0.245952 0.84273 0.234192 0.87297C0.222672 0.90273 0.214512 0.93297 0.206112 0.96369C0.197952 0.99297 0.189312 1.02177 0.183792 1.05225C0.178486 1.0866 0.175041 1.12121 0.173472 1.15593C0.172032 1.17753 0.166992 1.19817 0.166992 1.22001V33.86C0.167818 34.6236 0.471511 35.3556 1.01144 35.8956C1.55136 36.4355 2.28342 36.7392 3.04699 36.74H45.287C46.0506 36.7392 46.7826 36.4355 47.3225 35.8956C47.8625 35.3556 48.1662 34.6236 48.167 33.86V1.22001C48.167 1.19817 48.162 1.17753 48.1605 1.15593ZM44.7388 2.18001L24.167 21.0378L3.59515 2.18001H44.7388ZM45.287 34.82H3.04699C2.79246 34.8198 2.54843 34.7185 2.36845 34.5386C2.18847 34.3586 2.08725 34.1145 2.08699 33.86V3.40233L23.5183 23.0478C23.6953 23.2101 23.9268 23.3001 24.167 23.3001C24.4072 23.3001 24.6387 23.2101 24.8157 23.0478L46.247 3.40233V33.86C46.2467 34.1145 46.1455 34.3586 45.9655 34.5386C45.7856 34.7185 45.5415 34.8198 45.287 34.82Z" fill="url(#paint0_linear_2_1020)"/>
<defs>
<linearGradient id="paint0_linear_2_1020" x1="0.166993" y1="36.74" x2="50.9995" y2="32.2374" gradientUnits="userSpaceOnUse">
<stop stop-color="#CC9F3A"/>
<stop offset="1" stop-color="#EBCF82"/>
</linearGradient>
</defs>
</svg>
