<svg width="49" height="43" viewBox="0 0 49 43" fill="none" xmlns="http://www.w3.org/2000/svg">
<path d="M41.4584 7.44871C39.2348 5.22654 36.5903 3.47034 33.6795 2.28293C30.7688 1.09552 27.6504 0.500772 24.507 0.533508C21.3629 0.509707 18.2453 1.10841 15.3337 2.2951C12.4221 3.4818 9.77419 5.23301 7.54256 7.44782C5.31092 9.66262 3.5397 12.2972 2.331 15.1997C1.12229 18.1022 0.500004 21.2153 0.5 24.3594V37.7023C0.501387 38.9657 1.00389 40.177 1.89726 41.0704C2.79063 41.9637 4.00191 42.4662 5.26532 42.4676H9.07758C10.341 42.4662 11.5523 41.9637 12.4456 41.0704C13.339 40.177 13.8415 38.9657 13.8429 37.7023V28.1717C13.8415 26.9082 13.339 25.697 12.4456 24.8036C11.5523 23.9102 10.341 23.4077 9.07758 23.4063H2.42638C2.67362 17.7319 5.11366 12.3749 9.23247 8.46383C13.3513 4.5528 18.8273 2.39308 24.507 2.43964C30.1842 2.39668 35.6567 4.55801 39.7726 8.46867C43.8884 12.3793 46.3264 17.7343 46.5735 23.4063H39.9223C38.6589 23.4077 37.4476 23.9102 36.5543 24.8036C35.6609 25.697 35.1584 26.9082 35.157 28.1717V37.7023C35.1584 38.9657 35.6609 40.177 36.5543 41.0704C37.4476 41.9637 38.6589 42.4662 39.9223 42.4676H43.7346C44.998 42.4662 46.2093 41.9637 47.1026 41.0704C47.996 40.177 48.4985 38.9657 48.4999 37.7023V24.3594C48.509 21.2141 47.8909 18.0986 46.6818 15.195C45.4727 12.2914 43.6969 9.65799 41.4582 7.44871H41.4584ZM9.07758 25.3125C9.83563 25.3133 10.5624 25.6148 11.0984 26.1508C11.6345 26.6868 11.936 27.4136 11.9368 28.1717V37.7023C11.936 38.4604 11.6345 39.1871 11.0984 39.7232C10.5624 40.2592 9.83563 40.5607 9.07758 40.5615H5.26532C4.50727 40.5607 3.7805 40.2592 3.24447 39.7232C2.70845 39.1871 2.40695 38.4604 2.40613 37.7023V25.3125H9.07758ZM46.594 37.7023C46.5932 38.4604 46.2917 39.1871 45.7557 39.7232C45.2196 40.2592 44.4929 40.5607 43.7348 40.5615H39.9226C39.1645 40.5607 38.4377 40.2592 37.9017 39.7232C37.3657 39.1871 37.0642 38.4604 37.0634 37.7023V28.1717C37.0642 27.4136 37.3657 26.6868 37.9017 26.1508C38.4377 25.6148 39.1645 25.3133 39.9226 25.3125H46.594V37.7023Z" fill="url(#paint0_linear_2_1023)"/>
<defs>
<linearGradient id="paint0_linear_2_1023" x1="0.5" y1="42.4676" x2="51.4289" y2="38.5433" gradientUnits="userSpaceOnUse">
<stop stop-color="#CC9F3A"/>
<stop offset="1" stop-color="#EBCF82"/>
</linearGradient>
</defs>
</svg>
